<svg id="Capa_1" enable-background="new 0 0 512 512" height="512" viewBox="0 0 512 512" width="512" xmlns="http://www.w3.org/2000/svg"><g><path d="m203.061 212.656v-5.143c0-4.142-3.357-7.5-7.5-7.5s-7.5 3.358-7.5 7.5v5.143c0 4.142 3.357 7.5 7.5 7.5s7.5-3.358 7.5-7.5z"/><path d="m323.938 212.656v-5.143c0-4.142-3.357-7.5-7.5-7.5s-7.5 3.358-7.5 7.5v5.143c0 4.142 3.357 7.5 7.5 7.5s7.5-3.358 7.5-7.5z"/><path d="m368.736 469.163c-4.668 2.795-9.526 5.382-14.552 7.768-16.55-35.729-54.975-59.223-98.184-59.223-42.667 0-80.898 23.1-97.709 58.238-21.769-10.609-40.021-25.019-53.691-42.721 6.18-4.735 11.26-11.024 14.542-18.389 5.474-12.283 6.651-27.014 3.406-42.601-5.235-25.142-18.301-48.475-36.788-65.703-1.684-1.569-3.655-2.728-5.767-3.445 9.89-57.09 38.472-116.97 75.803-158.112 2.783-3.068 2.553-7.811-.515-10.594s-7.81-2.554-10.595.514c-40.379 44.501-70.992 109.853-80.399 171.307-1.947 1.705-3.478 3.882-4.422 6.381-.979 2.589-1.981 5.211-2.995 7.861-8.183 21.393-17.284 47.133-19.475 67.207-1.468 13.454.779 25.694 6.498 35.404.024.041.048.08.073.12 7.426 12.519 19.46 19.55 33.299 19.549.784 0 1.577-.023 2.372-.068 3.961-.227 7.843-1.006 11.56-2.263 16.667 22.363 39.743 40.037 67.472 52.235.272.143.552.275.847.386.028.01.056.017.084.027 27.473 11.919 59.454 18.497 94.286 18.937 1.242.016 2.478.023 3.715.023 45.022 0 86.046-10.334 118.839-29.967 3.554-2.128 4.71-6.734 2.582-10.287-2.127-3.557-6.736-4.711-10.286-2.584zm-289.955-41.483c-5.268.303-10.081-1.005-14.167-3.755 9.555-3.491 17.874-9.932 23.181-18.314 2.216-3.5 1.175-8.133-2.325-10.348-3.501-2.215-8.133-1.175-10.348 2.325-4.387 6.93-11.936 11.876-20.381 13.587-2.889-7.205-3.074-14.926-2.539-20.805 9.655-4.618 18.017-11.775 23.858-20.497 2.305-3.442 1.384-8.1-2.059-10.405-3.44-2.305-8.099-1.384-10.404 2.058-2.156 3.22-4.782 6.155-7.761 8.719 3.722-14.824 9.446-29.808 15.045-44.444 1.021-2.669 2.032-5.311 3.017-7.92.046-.123.188-.497.713-.62.089-.021.175-.031.258-.031.248 0 .471.091.665.272 16.239 15.132 27.72 35.654 32.329 57.787 1.813 8.707 2.864 21.576-2.422 33.438-4.766 10.698-15.48 18.314-26.66 18.953zm175.294 69.298c-30.097-.38-57.849-5.578-82.027-15.017 14.451-29.731 47.246-49.254 83.951-49.254 37.179 0 70.149 19.865 84.371 50.105-25.623 9.71-54.927 14.562-86.295 14.166z"/><path d="m240.076 292.177c3.795 5.06 9.598 7.962 15.924 7.962s12.129-2.902 15.924-7.963l20.696-27.603c4.593-6.126 3.925-14.749-1.555-20.057-22.939-22.22-47.19-22.221-70.131 0-5.478 5.307-6.146 13.929-1.554 20.056zm-8.706-36.886c17.034-16.5 32.224-16.5 49.258 0 .048.046.067.181-.011.285l-20.696 27.602c-1.279 1.707-3.006 1.961-3.922 1.961s-2.643-.254-3.922-1.961l-20.696-27.603c-.077-.104-.057-.238-.011-.284z"/><path d="m468.112 423.044c5.715-9.708 7.961-21.945 6.493-35.395-2.201-20.161-10.983-45.007-19.475-67.207-1.014-2.649-2.017-5.271-2.995-7.861-1.002-2.653-2.67-4.937-4.789-6.684-6.759-44.63-23.098-90.352-46.193-129.131-22.312-37.461-49.138-65.895-78.198-83.045 25.074-16.643 36.883-41.426 35.403-60.554-1.148-14.805-10.834-27.878-23.551-31.787-12.514-3.86-26.637.389-41.964 12.622-16.995 13.551-29.895 26.241-39.069 38.468-2.027-3.953-4.494-7.8-7.713-11.234-7.017-7.484-19.238-13.097-30.703-8.769-9.756 3.671-16.609 14.269-16.668 25.771-.044 8.613 3.396 17.677 9.944 26.207.389.508.787 1.013 1.194 1.513-12.711 5.547-25.275 13.214-37.475 22.879-3.247 2.572-3.794 7.289-1.222 10.536 2.572 3.246 7.289 3.793 10.536 1.222 14.308-11.335 29.052-19.624 43.822-24.636 2.546-.864 4.435-3.024 4.95-5.663.517-2.639-.42-5.351-2.453-7.11-2.806-2.428-5.309-5.071-7.448-7.865-3.143-4.095-6.883-10.368-6.849-17.005.027-5.336 2.95-10.303 6.957-11.811 4.967-1.876 10.984 1.274 14.47 4.993 4.769 5.087 7.528 12.388 10.195 19.45 1.03 2.726 3.546 4.609 6.452 4.828 2.894.221 5.676-1.264 7.103-3.806 7.892-14.052 22.469-29.609 43.328-46.241 11.217-8.953 20.702-12.324 28.197-10.013 6.865 2.11 12.336 9.937 13.007 18.61.767 9.91-3.766 20.276-9.502 28.504-6.795 9.718-17.273 18.321-29.767 24.39-.188.091-.358.204-.536.309-10.26 4.909-21.68 8.046-33.162 8.807-4.133.273-7.262 3.846-6.987 7.979.263 3.964 3.56 7.005 7.475 7.005.167 0 .335-.006.504-.017 12.315-.816 24.6-4.021 35.867-9.051 29.92 15.047 57.857 43.385 80.97 82.192 21.272 35.715 36.563 77.577 43.464 118.744-2.006.723-3.878 1.844-5.488 3.345-18.487 17.227-31.552 40.561-36.788 65.703-3.245 15.588-2.067 30.319 3.406 42.601 3.502 7.859 9.051 14.495 15.802 19.321-3.618 4.693-7.58 9.185-11.853 13.406-2.947 2.911-2.977 7.66-.065 10.606 1.468 1.485 3.401 2.229 5.336 2.229 1.904 0 3.809-.721 5.27-2.164 5.483-5.415 10.512-11.234 15.021-17.344 3.237.964 6.586 1.57 9.994 1.765.796.045 1.587.068 2.372.068 13.834 0 25.867-7.027 33.292-19.538.032-.047.061-.094.089-.142zm-34.893 4.636c-11.18-.639-21.894-8.255-26.66-18.951-5.286-11.861-4.235-24.731-2.422-33.438 4.608-22.133 16.09-42.655 32.329-57.786.194-.182.417-.273.665-.273.083 0 .169.01.258.031.525.123.667.497.713.62.985 2.609 1.996 5.25 3.017 7.92 5.599 14.636 11.323 29.62 15.045 44.444-2.979-2.564-5.604-5.499-7.761-8.719-2.305-3.442-6.965-4.364-10.404-2.058-3.442 2.305-4.363 6.963-2.059 10.405 5.841 8.722 14.204 15.879 23.858 20.497.535 5.879.35 13.6-2.539 20.805-8.444-1.712-15.993-6.657-20.381-13.587-2.216-3.5-6.849-4.54-10.348-2.325-3.5 2.215-4.541 6.849-2.325 10.348 5.307 8.383 13.628 14.824 23.185 18.315-4.081 2.748-8.891 4.056-14.171 3.752z"/></g></svg>